<?xml version="1.0" encoding="utf-8"?>
<!-- Generator: Adobe Illustrator 16.0.0, SVG Export Plug-In . SVG Version: 6.00 Build 0)  -->
<!DOCTYPE svg PUBLIC "-//W3C//DTD SVG 1.1//EN" "http://www.w3.org/Graphics/SVG/1.1/DTD/svg11.dtd">
<svg version="1.1" id="Layer_1" xmlns="http://www.w3.org/2000/svg" xmlns:xlink="http://www.w3.org/1999/xlink" x="0px" y="0px"
	 width="706px" height="317px" viewBox="0 0 706 317" enable-background="new 0 0 706 317" xml:space="preserve">
<polygon fill="#FFFFFF" points="388.446,145.312 364.968,145.312 375.596,95.264 375.403,95.264 354.726,145.312 335.886,145.312 
	336.562,95.167 336.369,95.167 325.741,145.312 302.263,145.312 316.949,76.328 353.471,76.328 351.442,115.747 351.644,115.83 
	367.023,76.328 403.132,76.328 "/>
<g>
	<defs>
		<rect id="SVGID_1_" x="-144" y="-343" width="1000" height="1000"/>
	</defs>
	<clipPath id="SVGID_2_">
		<use xlink:href="#SVGID_1_"  overflow="visible"/>
	</clipPath>
	<path clip-path="url(#SVGID_2_)" fill="#FFFFFF" d="M456.756,145.312h-23.575l1.159-5.604h-0.193
		c-4.188,4.961-10.628,7.44-19.323,7.44c-4.316,0-7.795-0.87-10.435-2.609c-3.157-2.06-4.735-5.152-4.735-9.275
		c0-1.288,0.16-2.672,0.484-4.154l8.309-39.13h23.574l-6.763,32.173c-0.129,0.773-0.193,1.449-0.193,2.029
		c0,2.642,1.546,3.962,4.639,3.962c2.125,0,3.927-0.692,5.409-2.078c1.481-1.384,2.448-3.14,2.899-5.265l6.473-30.821h23.574
		L456.756,145.312z"/>
	<path clip-path="url(#SVGID_2_)" fill="#FFFFFF" d="M527.381,128.791c-1.418,6.507-5.057,11.241-10.918,14.203
		c-5.54,2.769-13.591,4.154-24.153,4.154c-9.405,0-16.298-1.111-20.678-3.333c-4.38-2.222-6.569-5.715-6.569-10.483
		c0-1.481,0.193-3.059,0.581-4.734h25.023c-0.13,2.19,0.176,3.656,0.918,4.396c0.739,0.741,2.236,1.111,4.492,1.111
		c3.285,0,5.184-1.127,5.701-3.382c0.063-0.386,0.096-0.708,0.096-0.966c0-0.901-0.677-1.545-2.028-1.932
		c-2.385-0.515-4.768-0.998-7.149-1.449c-8.826-1.868-14.172-3.22-16.039-4.058c-4.316-1.996-6.473-5.184-6.473-9.566
		c0-1.352,0.159-2.833,0.481-4.444c2.576-12.108,13.688-18.164,33.333-18.164c8.632,0,15.298,1.418,20.001,4.251
		c4.251,2.642,6.376,6.055,6.376,10.242c0,0.966-0.13,1.965-0.386,2.995h-23.962c0.194-0.773,0.291-1.353,0.291-1.739
		c0-1.802-1.805-2.705-5.411-2.705c-3.93,0-6.152,1.127-6.667,3.381c-0.193,0.903,1.449,1.966,4.928,3.189
		c3.285,1.095,6.603,1.836,9.952,2.221c6.376,0.645,10.82,1.611,13.332,2.899c3.673,1.869,5.508,4.961,5.508,9.275
		C527.961,125.507,527.769,127.052,527.381,128.791"/>
	<path clip-path="url(#SVGID_2_)" fill="#FFFFFF" d="M596.753,122.124c-2.643,9.792-7.408,16.618-14.301,20.483
		c-5.475,3.027-13.139,4.541-22.994,4.541c-18.551,0-27.826-6.601-27.826-19.806c0-2.641,0.354-5.636,1.063-8.986
		c2.062-9.597,6.199-16.698,12.416-21.304c6.215-4.605,14.991-6.908,26.328-6.908c9.919,0,16.988,1.369,21.207,4.106
		c4.219,2.738,6.33,7.424,6.33,14.058c0,1.675-0.13,3.543-0.387,5.604h-23.575c0.256-1.223,0.386-2.319,0.386-3.285
		c0-3.928-2.256-5.894-6.763-5.894c-3.35,0-5.814,0.918-7.391,2.754c-1.579,1.835-2.947,5.427-4.106,10.772
		c-0.71,3.222-1.063,5.797-1.063,7.73c0,2.384,0.531,4.026,1.595,4.928c1.063,0.903,2.754,1.352,5.072,1.352
		c2.641,0,4.701-0.643,6.184-1.933c1.739-1.481,3.22-4.217,4.444-8.212H596.753z"/>
	<polygon clip-path="url(#SVGID_2_)" fill="#FFFFFF" points="621.1,145.312 597.525,145.312 612.5,74.684 636.075,74.684 	"/>
	<path clip-path="url(#SVGID_2_)" fill="#FFFFFF" d="M696.17,123.283h-40.387c-0.516,2.191-0.772,3.962-0.772,5.314
		c0,3.929,2.318,5.894,6.956,5.894c4.059,0,7.054-2.254,8.986-6.763h23.961c-4.059,12.946-15.749,19.42-35.072,19.42
		c-18.681,0-28.02-6.537-28.02-19.614c0-2.705,0.354-5.699,1.063-8.985c1.933-9.082,5.604-15.909,11.014-20.483
		c6.247-5.28,15.104-7.922,26.57-7.922c9.531,0,16.456,1.61,20.772,4.83c4.314,3.222,6.475,8.406,6.475,15.556
		C697.717,114.138,697.2,118.389,696.17,123.283 M675.688,111.593c0.256-1.16,0.386-2.189,0.386-3.092
		c0-3.993-2.415-5.991-7.246-5.991c-2.898,0-5.057,0.58-6.474,1.739c-1.611,1.29-2.963,3.737-4.059,7.344H675.688z"/>
	<polygon clip-path="url(#SVGID_2_)" fill="#FFFFFF" points="360.487,225.576 351.581,225.576 361.195,180.41 361.024,180.405 
		335.51,225.576 327.956,225.576 321.942,180.405 321.735,180.394 312.118,225.576 303.213,225.576 314.927,170.539 
		328.406,170.539 334.089,214.403 334.294,214.409 358.895,170.539 372.201,170.539 	"/>
	<path clip-path="url(#SVGID_2_)" fill="#FFFFFF" d="M455.063,225.576h-10.329l-2.004-14.724h-21.892l-8.093,14.724h-10.252
		l32.374-55.037H446.2L455.063,225.576z M441.883,203.299l-2.909-24.896l-0.152,0.013l-14.013,24.884H441.883z"/>
	<polygon clip-path="url(#SVGID_2_)" fill="#FFFFFF" points="507.02,225.576 497.403,225.576 509.118,170.539 518.733,170.539 	"/>
	<path clip-path="url(#SVGID_2_)" fill="#FFFFFF" d="M608.532,197.98c-1.85,8.839-5.448,15.647-10.791,20.427
		c-5.345,4.779-11.82,7.169-19.425,7.169h-22.97l11.713-55.037h23.203c12.899,0,19.349,6.064,19.349,18.191
		C609.611,191.505,609.251,194.589,608.532,197.98 M598.897,197.826c0.616-2.877,0.925-5.446,0.925-7.708
		c0-8.119-4.288-12.179-12.863-12.179h-11.86l-8.564,40.236h11.096C588.933,218.176,596.021,211.393,598.897,197.826"/>
	<path clip-path="url(#SVGID_2_)" fill="#FFFFFF" d="M694.94,210.082c-1.079,5.14-3.932,9.225-8.557,12.256
		c-4.831,3.136-10.972,4.702-18.422,4.702c-6.526,0-11.485-1.388-14.877-4.162c-3.135-2.517-4.702-6.063-4.702-10.638
		c0-1.387,0.154-2.852,0.462-4.394h9.944c-0.258,1.132-0.385,2.185-0.385,3.161c0,5.807,3.879,8.71,11.639,8.71
		c8.221,0,12.95-2.853,14.184-8.557c0.153-0.719,0.23-1.36,0.23-1.927c0-2.517-1.387-4.444-4.162-5.781
		c-1.183-0.564-4.445-1.542-9.789-2.929c-6.064-1.592-9.943-2.878-11.64-3.854c-2.775-1.592-4.162-4.009-4.162-7.246
		c0-1.181,0.154-2.517,0.462-4.008c1.079-5.189,3.932-9.25,8.557-12.179c4.265-2.775,9.454-4.163,15.57-4.163
		c12.436,0,18.654,4.575,18.654,13.721c0,1.184-0.103,2.493-0.304,3.932h-9.641v-2.081c0-5.55-3.392-8.325-10.175-8.325
		c-3.289,0-6.039,0.643-8.248,1.927c-2.364,1.389-3.829,3.393-4.393,6.013c-0.155,0.721-0.232,1.388-0.232,2.004
		c0,2.158,1.207,3.752,3.623,4.779c0.873,0.36,4.163,1.222,9.867,2.582c5.704,1.362,9.686,2.764,11.948,4.201
		c3.286,2.057,4.933,4.96,4.933,8.71C695.326,207.615,695.197,208.798,694.94,210.082"/>
	<path clip-path="url(#SVGID_2_)" fill="#EE3C96" d="M295.912,233.306c-2.068-12.69-5.155-25.123-13.388-37.49
		c-0.45,3.541-0.726,5.315-0.894,7.101c-1.785,18.962-10.73,32.319-29.459,38.369c-6.617,2.137-12.352,6.151-17.76,10.438
		c-7.621,6.041-12.522,13.84-12.407,23.808c0.045,3.979-1.546,5.53-4.756,7.085c-53.163,25.756-119.919,11.309-158.332-34.37
		C4.88,183.987,23.024,89.468,91.244,47.951l-0.601-5.179C56.861,58.803,28.208,91.856,18,133.282
		c-14.594,59.225,12.243,124.05,64.693,155.252c26.702,15.886,55.771,23.867,86.776,20.671
		c39.813-4.106,74.748-18.851,100.266-51.781c-3.049,9.629-8.963,16.867-15.704,23.67c-6.829,6.89-15.528,11.363-24.257,18.101
		c12.233,4.181,22.51,3.108,32.478-1.288C287.709,286.679,300.593,262.022,295.912,233.306"/>
	<path clip-path="url(#SVGID_2_)" fill="#EE3C96" d="M273.406,71.378c-19.974,0.03-28.094,9.515-28.269,28.571
		c-2.065-17.345-8.549-29.068-28.439-30.055c20.647,0.152,26.726-11.21,27.319-29.207C246.059,58.479,251.565,71.875,273.406,71.378
		"/>
	<path clip-path="url(#SVGID_2_)" fill="#EE3C96" d="M302.283,69.68c-0.306-14.376-7.633-21.325-22.351-22.395
		c13.639-1.765,22.551-6.99,22.382-22.827c1.494,14.207,8.042,22.225,22.28,22.837C307.721,54.5,307.721,54.5,302.283,69.68"/>
	<path clip-path="url(#SVGID_2_)" fill="#EE3968" d="M132.312,150.09c-18.06-7.139-32.228,0.35-44.189,13.627
		c-4.914,5.454-9.224,7.167-16.72,3.415c-7.534-3.771-31.162-12.722-43.527-17.003c-0.099,1.089-0.181,2.179-0.253,3.272
		c18.309,6.803,52.213,16.206,55.003,39.4c4.454-9.34,7.175-16.606,11.155-23.102c12.677-20.693,32.9-23.486,50.246-6.813
		c3.685,3.541,5.945,8.824,8.114,13.642c14.765,32.794,35.107,41.602,70.051,28.85c4.946-1.805,9.081-5.833,12.584-8.161
		c-11.12-4.454-22.574-6.524-30.816-12.808c-26.03-19.846-42.058-77.233-31.699-108.891c3.848,2.712,7.57,5.336,11.292,7.96
		c0.71-0.668,1.421-1.336,2.131-2.003c-8.075-13.065-16.15-26.131-24.419-39.51c-7.403,6.822-13.376,12.326-19.804,18.25
		c-0.592,2.324-1.613,6.327-3.412,13.387c-5.478-11.224-9.11-18.668-12.743-26.111c-1.092,0.4-2.184,0.799-3.276,1.199
		c0.641,7.643,1.283,15.285,1.924,22.928c-1.178,0.16-2.356,0.319-3.534,0.479c-2.251-10.304-4.084-20.73-7.04-30.827
		c-0.76-2.594-5.061-4.15-7.735-6.183c-1.15,3.102-3.49,6.315-3.213,9.284c0.679,7.271,2.565,14.431,3.965,21.635
		C97.458,52.9,105.387,33.345,87.022,23.76c1.071-1.301,1.967-3.539,3.352-3.899c16.614-4.318,33.188-10.983,50.003-11.71
		c15.782-0.681,30.025,6.433,36.401,24.445c4.563,12.888,11.28,25.413,19.086,36.681c26.578,38.362,52.998,76.46,59.846,124.433
		c1.829,12.807-2.165,25.202-14.664,29.73c-7.493,2.713-15.61,4.718-23.528,5.038c-18.08,0.731-36.209,0.23-52.233,0.23
		c5.156,6.289,11.839,14.438,18.521,22.588c-0.919,0.984-1.837,1.968-2.756,2.951c-29.106,1.67-58.267,3.722-85.501-13.319
		c9.308-6.889,19.08-11.583,28.665-16.633c12.996-6.845,18.111-13.529,18.715-23.684c-27.556,27.157-36.297,28.009-71.881,10.079
		c-5.891-2.969-25.906-10.718-39.55-15.403c1.222,4.751,2.722,9.46,4.495,14.113c7.553,5.659,17.561,12.447,21.249,16.521
		c-2.425,1.826-4.314,4.022-6.691,4.908c-1.165,0.436-2.215,0.927-3.201,1.449c3.409,5.484,7.243,10.825,11.565,15.965
		c16.206,19.271,37.463,32.957,60.609,40.438c50.469-3.442,90.917-31.353,129.804-61.506c6.846-5.31,12.307-18.912,10.801-27.319
		c-5.53-30.883-13.252-61.192-31.496-88.216c-18.649-27.626-35.275-56.711-51.32-85.962c-8.442-15.39-21.572-20.015-36.776-21.428
		c-7.476-0.695-15.295,1.154-22.839,2.517c-33.375,6.03-40.138,14.1-39.963,46.979c0.072,13.516,5.716,21.182,18.369,26.114
		c18.278,7.125,33.999-1.286,50.595-6.808c12.313,28.363,4.641,58.35,4.358,88.354C143.985,157.056,138.55,152.556,132.312,150.09"
		/>
</g>
</svg>
